<svg width="43" height="32" viewBox="0 0 43 32" fill="none" xmlns="http://www.w3.org/2000/svg">
<path d="M42.2931 11.1695C42.025 12.3049 41.2559 12.9316 40.2264 13.3973C34.8174 15.8447 29.4251 18.3262 24.0282 20.8001C22.0829 21.6917 20.1553 21.6674 18.2121 20.7736C12.7315 18.2523 7.24308 15.7464 1.75689 13.2362C0.386451 12.6094 -0.249117 11.4188 0.0896317 10.0694C0.305901 9.2076 0.857609 8.63383 1.65648 8.2697C4.94466 6.77016 8.23064 5.26289 11.5166 3.75783C13.7532 2.73386 15.9921 1.7143 18.2243 0.681507C20.1497 -0.210053 22.0686 -0.234328 24.0018 0.652818C29.5354 3.19068 35.069 5.72853 40.6104 8.25094C41.5086 8.66031 42.0217 9.34553 42.292 10.2603C42.2931 10.5626 42.2931 10.866 42.2931 11.1695Z" fill="white"/>
<path d="M34.3639 19.0003C34.3639 19.1702 34.3639 19.2905 34.3639 19.4108C34.3639 21.1487 34.3816 22.8865 34.3595 24.6244C34.3308 26.9482 33.255 28.6574 31.1452 29.5909C24.4762 32.5414 17.7774 32.5282 11.1138 29.5755C9.03719 28.6552 7.9746 26.957 7.93819 24.6686C7.91061 22.9174 7.93267 21.1652 7.93267 19.4141C7.93267 19.2927 7.93267 19.1713 7.93267 18.9849C8.24163 19.1206 8.50204 19.2309 8.75913 19.349C11.5342 20.619 14.3126 21.8824 17.0811 23.1646C19.8098 24.428 22.5231 24.4137 25.2486 23.1525C28.155 21.8074 31.0713 20.4811 33.9832 19.1471C34.0925 19.0985 34.205 19.061 34.3639 19.0003Z" fill="white"/>
<path d="M39.649 16.552C39.649 17.2516 39.649 17.8838 39.649 18.5161C39.649 20.7196 39.6534 22.9242 39.6456 25.1278C39.6434 25.8306 39.148 26.3879 38.4882 26.4717C37.8449 26.5534 37.227 26.1352 37.0548 25.4864C37.0129 25.3297 37.0074 25.1598 37.0074 24.9964C37.0041 22.7102 37.0107 20.4228 36.9985 18.1365C36.9974 17.8629 37.0692 17.7238 37.3296 17.6124C38.0865 17.2891 38.828 16.9305 39.649 16.552Z" fill="white"/>
</svg>
