<svg width="38" height="38" viewBox="0 0 38 38" fill="none" xmlns="http://www.w3.org/2000/svg">
<path d="M38 17.8861C38 18.6287 38 19.3703 38 20.1129C37.9782 20.221 37.9435 20.3281 37.9365 20.4371C37.8472 21.7994 37.5904 23.131 37.2026 24.4377C34.2192 34.4833 23.5742 40.2179 13.5262 37.192C4.69122 34.5318 -0.932312 25.9824 0.127927 16.8024C0.609944 12.6244 2.30593 8.99856 5.19704 5.9498C8.09509 2.8931 11.6309 0.99246 15.7925 0.285543C16.4848 0.167558 17.184 0.0941895 17.8812 0C18.6241 0 19.366 0 20.1088 0C20.2169 0.0218123 20.324 0.0555222 20.4321 0.0624625C22.4703 0.205234 24.446 0.640488 26.3116 1.47134C32.5917 4.26728 36.4181 9.03525 37.7143 15.8C37.8453 16.4881 37.9068 17.1901 38 17.8861ZM14.2562 17.4409C13.6631 17.4409 13.1325 17.43 12.6019 17.4439C11.7628 17.4657 11.1112 18.1379 11.0993 18.9737C11.0864 19.8403 11.7519 20.5363 12.6266 20.5541C13.1652 20.566 13.7037 20.5561 14.2562 20.5561C14.2562 20.8744 14.2562 21.1331 14.2562 21.3929C14.2562 21.6487 14.2562 21.9045 14.2562 22.192C13.7216 22.192 13.2297 22.1891 12.7377 22.193C11.7906 22.199 11.1052 22.8484 11.0993 23.7407C11.0933 24.6489 11.7826 25.3043 12.7516 25.3092C13.2426 25.3112 13.7335 25.3092 14.2582 25.3092C14.2582 25.8694 14.2453 26.3859 14.2611 26.9025C14.2929 27.9802 15.2331 28.6961 16.2408 28.4234C16.8924 28.2469 17.3526 27.6758 17.3714 26.9828C17.3873 26.4315 17.3744 25.8803 17.3744 25.3092C18.4614 25.3092 19.488 25.3122 20.5135 25.3082C21.4557 25.3042 22.1351 24.6439 22.1321 23.7457C22.1291 22.8533 21.4438 22.198 20.4996 22.193C19.597 22.1881 18.6935 22.193 17.791 22.191C17.661 22.191 17.5311 22.1801 17.4012 22.1742C17.4012 21.618 17.4012 21.1044 17.4012 20.5571C17.5569 20.5571 17.6898 20.5571 17.8227 20.5571C19.0099 20.5571 20.1981 20.5749 21.3853 20.5482C21.8623 20.5373 22.3513 20.4798 22.8115 20.3558C25.4933 19.635 27.2002 17.0691 26.8541 14.3188C26.5149 11.621 24.1871 9.54387 21.4339 9.51215C19.6407 9.49132 17.8465 9.50719 16.0533 9.50818C14.885 9.50818 14.2592 10.1278 14.2582 11.2869C14.2562 13.1915 14.2582 15.0951 14.2582 16.9997C14.2562 17.1336 14.2562 17.2664 14.2562 17.4409Z" fill="white"/>
<path d="M17.4063 12.6303C18.2572 12.6303 19.0834 12.6244 19.9096 12.6323C20.5275 12.6382 21.1523 12.6035 21.7603 12.6858C22.9802 12.8504 23.8123 13.9093 23.7637 15.1437C23.7171 16.3404 22.7908 17.3675 21.5867 17.4181C20.2041 17.4756 18.8186 17.432 17.4053 17.432C17.4063 15.8437 17.4063 14.2682 17.4063 12.6303Z" fill="white"/>
</svg>
