<svg width="38" height="38" viewBox="0 0 38 38" fill="none" xmlns="http://www.w3.org/2000/svg">
<path d="M19.0049 2.2529e-05C19.9069 0.00319513 20.7107 0.294017 21.4298 0.830186C22.1806 1.38962 22.9347 1.94483 23.677 2.51589C24.4342 3.09859 25.2781 3.39576 26.2373 3.42114C27.1859 3.44652 28.1345 3.51103 29.081 3.58083C30.8767 3.71408 32.261 4.92601 32.6936 6.72487C32.9273 7.6978 33.1557 8.67285 33.3841 9.64684C33.5639 10.4146 33.951 11.0608 34.522 11.599C35.2232 12.2589 35.9307 12.9125 36.6286 13.5766C38.0838 14.9599 38.3926 16.7196 37.499 18.5121C37.1701 19.172 36.8698 19.851 36.4912 20.4823C35.7964 21.6424 35.6515 22.8671 35.8799 24.1763C36.0089 24.9155 36.0819 25.6653 36.1602 26.413C36.341 28.1367 35.4664 29.7114 33.8928 30.4475C32.9749 30.8768 32.0368 31.266 31.0999 31.653C30.2676 31.9978 29.6161 32.5414 29.1329 33.3007C28.6369 34.079 28.1293 34.8489 27.6195 35.6188C26.5155 37.2855 24.8149 37.8946 22.905 37.3161C21.9596 37.0295 21.0142 36.744 20.0666 36.468C19.3401 36.2565 18.6104 36.2671 17.8828 36.4807C16.7587 36.8106 15.6483 37.2083 14.5051 37.4441C12.8807 37.7793 11.5366 37.1945 10.5594 35.8652C9.95873 35.0488 9.42679 34.1805 8.88216 33.325C8.39146 32.5551 7.73791 31.9957 6.88977 31.6499C6.03634 31.3019 5.19454 30.9265 4.34746 30.5617C2.52216 29.777 1.60634 28.141 1.87178 26.1687C1.99656 25.2412 2.10232 24.3116 2.20596 23.381C2.2969 22.5614 2.16365 21.781 1.78294 21.0428C1.34724 20.2 0.921054 19.3529 0.498041 18.5037C-0.394517 16.7122 -0.0793722 14.9493 1.37897 13.5713C2.04944 12.9368 2.72203 12.3034 3.40203 11.6784C4.0651 11.0692 4.47859 10.3258 4.67212 9.44908C4.87411 8.53643 5.08985 7.62589 5.30876 6.71641C5.76032 4.83612 7.23981 3.63899 9.16558 3.56602C10.1533 3.52795 11.1411 3.46873 12.1277 3.39999C12.8966 3.34711 13.5871 3.06898 14.2037 2.60578C14.963 2.03577 15.7255 1.46999 16.4826 0.89681C17.2293 0.328915 18.0563 -0.00315007 19.0049 2.2529e-05ZM31.9459 18.7733C31.9586 11.6435 26.1993 5.86933 19.026 5.81963C11.9088 5.77098 6.06489 11.6001 6.05326 18.7596C6.04163 25.8884 11.801 31.6626 18.9731 31.7133C26.0893 31.7641 31.9343 25.9339 31.9459 18.7733Z" fill="white"/>
<path d="M18.9742 30.4463C12.5021 30.404 7.27785 25.1576 7.31909 18.7405C7.36033 12.2684 12.6068 7.0442 19.0239 7.08545C25.497 7.12669 30.7149 12.3678 30.6789 18.7902C30.644 25.2591 25.3913 30.4886 18.9742 30.4463ZM17.3741 19.7177C16.5767 18.9192 15.7349 18.0648 14.8805 17.224C14.155 16.5102 13.0837 16.4964 12.3974 17.1733C11.6888 17.8723 11.693 18.9372 12.4291 19.6817C13.6812 20.9465 14.9386 22.206 16.2045 23.4571C16.9479 24.1921 17.979 24.2016 18.7119 23.4656C21.0099 21.1591 23.3005 18.8442 25.5837 16.5218C26.306 15.7879 26.3039 14.7282 25.6155 14.0408C24.9291 13.3556 23.8695 13.3661 23.1334 14.0747C22.7823 14.4131 22.4513 14.7716 22.1023 15.1121C20.5361 16.6403 18.9678 18.1652 17.3741 19.7177Z" fill="white"/>
</svg>
