<svg width="34" height="33" viewBox="0 0 34 33" fill="none" xmlns="http://www.w3.org/2000/svg">
<path d="M17.2196 0C18.4459 0.0392914 19.5233 0.701292 20.1754 2.02053C21.2268 4.14822 22.2664 6.28186 23.2966 8.42026C23.4431 8.72507 23.6238 8.83937 23.9582 8.88581C26.3056 9.21443 28.6518 9.56209 30.9944 9.92524C32.405 10.1443 33.3584 10.9647 33.8002 12.3256C34.2479 13.7067 33.942 14.9498 32.9177 15.9737C31.2319 17.6597 29.5283 19.3278 27.8224 20.9923C27.5992 21.2102 27.5271 21.3995 27.5838 21.7246C27.9996 24.0809 28.393 26.4407 28.7829 28.8018C29.018 30.2234 28.5573 31.3998 27.4231 32.2558C26.2571 33.1357 24.9789 33.2346 23.6794 32.5571C21.6533 31.4998 19.6308 30.4318 17.626 29.334C17.1759 29.0875 16.8392 29.0756 16.382 29.328C14.4185 30.4103 12.4315 31.4474 10.4515 32.4987C9.13425 33.1977 7.8371 33.1774 6.62028 32.2916C5.50034 31.476 5.00416 30.3353 5.192 28.9482C5.35739 27.7266 5.5913 26.5134 5.79804 25.2977C6.00951 24.0523 6.23515 22.8092 6.42535 21.5603C6.44898 21.4007 6.33321 21.1685 6.20798 21.0447C4.4879 19.3302 2.73828 17.6454 1.03119 15.9178C-0.54949 14.3175 -0.273048 11.6541 1.60416 10.4694C2.08616 10.1646 2.68275 9.97882 3.24982 9.88714C5.53223 9.51685 7.82174 9.19895 10.1112 8.87747C10.3936 8.83818 10.5472 8.73221 10.6724 8.47265C11.7108 6.32234 12.7599 4.17679 13.816 2.03482C14.4611 0.722723 15.5976 0.00357194 17.2196 0Z" fill="white"/>
</svg>
