<svg width="39" height="32" viewBox="0 0 39 32" fill="none" xmlns="http://www.w3.org/2000/svg">
<path d="M13.6337 10.891C13.4642 10.2561 13.9427 9.63306 14.5998 9.63306C17.6972 9.63306 20.7754 9.63306 23.8856 9.63306C24.5427 9.63306 25.0212 10.256 24.8518 10.8909C23.0018 17.8246 21.1579 24.7336 19.314 31.6437C19.3067 31.6712 19.2839 31.6919 19.2558 31.6966C19.2189 31.7027 19.1834 31.6798 19.1737 31.6437C17.3302 24.7367 15.4865 17.8318 13.6337 10.891Z" fill="white"/>
<path d="M0.321367 10.0159C0.191187 9.85366 0.297128 9.60093 0.505136 9.60093C4.10265 9.59969 7.69893 9.6034 11.2964 9.59474C11.6164 9.59351 11.7783 9.65781 11.8709 10.0115C13.7438 17.0823 15.6352 24.1494 17.5217 31.2165C17.5469 31.3133 17.4284 31.3345 17.3658 31.2565C11.7046 24.2025 6.04412 17.1479 0.321367 10.0159Z" fill="white"/>
<path d="M37.8628 9.5998C38.1194 9.5998 38.2619 9.89689 38.1013 10.097C32.3565 17.2562 26.6877 24.3221 21.019 31.3867C21.0053 31.4038 20.9817 31.4092 20.9617 31.4002C20.9396 31.3903 20.9275 31.3659 20.9337 31.3425C21.2129 30.2828 21.4911 29.2219 21.774 28.1635C23.3739 22.166 24.9787 16.1698 26.565 10.1686C26.6786 9.74077 26.8368 9.58496 27.3013 9.58743C30.821 9.60969 34.3419 9.5998 37.8628 9.5998Z" fill="white"/>
<path d="M18.432 1.62548C18.8309 1.06996 19.6574 1.06991 20.0564 1.6254C21.2309 3.26063 22.3896 4.87408 23.5591 6.50279C24.0342 7.16439 23.5613 8.08605 22.7468 8.08605C20.4055 8.08605 18.0882 8.08605 15.7412 8.08605C14.9265 8.08605 14.4536 7.164 14.929 6.50237C16.0998 4.87277 17.2594 3.25814 18.432 1.62548Z" fill="white"/>
<path d="M4.59503 1.63437C4.99306 1.07689 5.82111 1.07556 6.22088 1.63178C7.38645 3.25346 8.5426 4.86245 9.71034 6.48763C10.1857 7.14921 9.71288 8.07117 8.89823 8.07117C6.57921 8.07117 4.27561 8.07117 1.94216 8.07117C1.12899 8.07117 0.655803 7.15221 1.12822 6.49035C2.28465 4.87021 3.43447 3.25986 4.59503 1.63437Z" fill="white"/>
<path d="M37.3695 6.50261C37.842 7.16447 37.3689 8.08353 36.5556 8.08353C34.2195 8.08353 31.9095 8.08353 29.5812 8.08353C28.7665 8.08353 28.2937 7.16163 28.7691 6.50008C29.9367 4.87519 31.095 3.26358 32.2674 1.63202C32.6671 1.07573 33.4952 1.07687 33.8933 1.63431C35.054 3.25948 36.2061 4.87281 37.3695 6.50261Z" fill="white"/>
<path d="M15.8197 0.00610352C16.6342 0.00610352 17.1071 0.927721 16.632 1.58931C15.4652 3.21421 14.3082 4.82499 13.1377 6.45392C12.7387 7.00916 11.9125 7.00913 11.5135 6.4539C10.3473 4.831 9.18831 3.21865 8.01762 1.58954C7.54224 0.928001 8.01505 0.00610352 8.82968 0.00610352C11.1659 0.00610352 13.4814 0.00610352 15.8197 0.00610352Z" fill="white"/>
<path d="M26.9756 6.45461C26.5766 7.01006 25.7503 7.0101 25.3513 6.45467C24.1785 4.82211 23.0209 3.21012 21.8526 1.58341C21.3774 0.921794 21.8503 0 22.6648 0C25.0044 0 27.3203 0 29.6619 0C30.4765 0 30.9494 0.921883 30.4742 1.58351C29.3073 3.20804 28.148 4.8223 26.9756 6.45461Z" fill="white"/>
</svg>
